<svg width="246" height="246" viewBox="0 0 246 246" fill="none" xmlns="http://www.w3.org/2000/svg">
<path fill-rule="evenodd" clip-rule="evenodd" d="M122.676 238.8C186.896 238.8 238.957 186.74 238.957 122.52C238.957 58.2997 186.896 6.23899 122.676 6.23899C58.4559 6.23899 6.39524 58.2997 6.39524 122.52C6.39524 186.74 58.4559 238.8 122.676 238.8ZM122.676 245.039C190.342 245.039 245.196 190.186 245.196 122.52C245.196 54.854 190.342 0 122.676 0C55.0102 0 0.15625 54.854 0.15625 122.52C0.15625 190.186 55.0102 245.039 122.676 245.039Z" fill="black"/>
<path d="M47.3665 92.5546C47.3665 110.145 62.9639 122.71 82.2008 122.71C99.2714 122.71 112.703 114.998 115.562 100.787L107.59 99.7467C105.164 111.272 95.4587 116.904 82.1142 116.904C66.3434 116.904 55.7718 107.112 55.7718 92.6412C55.7718 77.9969 67.0366 68.2051 82.0275 68.2918C94.6788 68.3785 105.857 73.7509 107.677 85.9689L115.909 85.1891C113.742 70.5448 99.3581 62.3994 82.0275 62.3994C62.704 62.3994 47.3665 74.8774 47.3665 92.5546Z" fill="black"/>
<path d="M157.768 122.71C177.092 122.71 192.429 109.972 192.429 92.5546C192.429 74.9641 176.832 62.3994 157.941 62.3994C138.271 62.3994 122.934 76.0039 122.934 92.9012C122.934 109.972 138.531 122.71 157.768 122.71ZM131.772 93.0745C131.772 78.7768 143.384 68.7251 158.288 68.8117C172.326 68.8117 183.677 77.9103 183.677 92.5546C183.677 107.545 171.719 116.471 157.595 116.471C143.557 116.471 131.772 107.459 131.772 93.0745Z" fill="black"/>
<path d="M47.3665 161.01C47.3665 178.601 62.9639 191.165 82.2008 191.165C99.2714 191.165 112.703 183.453 115.562 169.242L107.59 168.202C105.164 179.727 95.4587 185.36 82.1142 185.36C66.3434 185.36 55.7718 175.568 55.7718 161.097C55.7718 146.452 67.0366 136.661 82.0275 136.747C94.6788 136.834 105.857 142.206 107.677 154.425L115.909 153.645C113.742 139 99.3581 130.855 82.0275 130.855C62.704 130.855 47.3665 143.333 47.3665 161.01Z" fill="black"/>
<path d="M157.768 191.165C177.092 191.165 192.429 178.427 192.429 161.01C192.429 143.42 176.832 130.855 157.941 130.855C138.271 130.855 122.934 144.459 122.934 161.357C122.934 178.427 138.531 191.165 157.768 191.165ZM131.772 161.53C131.772 147.232 143.384 137.181 158.288 137.267C172.326 137.267 183.677 146.366 183.677 161.01C183.677 176.001 171.719 184.926 157.595 184.926C143.557 184.926 131.772 175.914 131.772 161.53Z" fill="black"/>
</svg>
