<svg width="141" height="99" viewBox="0 0 141 99" fill="none" xmlns="http://www.w3.org/2000/svg">
<path d="M23.582 72.712V71.48H15.392V72.712H18.822V81H20.152V72.712H23.582ZM26.3647 74.294C25.3707 74.294 24.5307 74.616 23.8727 75.274C23.2147 75.932 22.8787 76.744 22.8787 77.738C22.8787 78.732 23.2147 79.558 23.8727 80.216C24.5447 80.874 25.3707 81.21 26.3647 81.21C27.3447 81.21 28.1707 80.874 28.8287 80.216C29.5007 79.558 29.8367 78.732 29.8367 77.738C29.8367 76.758 29.5007 75.946 28.8287 75.288C28.1707 74.63 27.3447 74.294 26.3647 74.294ZM26.3647 80.034C25.7347 80.034 25.1887 79.81 24.7827 79.376C24.3627 78.928 24.1667 78.382 24.1667 77.738C24.1667 77.108 24.3767 76.562 24.7827 76.128C25.2027 75.694 25.7347 75.47 26.3647 75.47C26.9947 75.47 27.5127 75.694 27.9187 76.128C28.3247 76.562 28.5347 77.108 28.5347 77.738C28.5347 78.382 28.3247 78.928 27.9187 79.376C27.5127 79.81 26.9947 80.034 26.3647 80.034ZM35.9626 79.852C35.5846 79.964 35.2206 80.02 34.8706 80.02C33.9606 80.02 33.5126 79.53 33.5126 78.564V75.54H35.9626V74.462H33.5126V72.054H32.2246V74.462H30.6146V75.54H32.2246V78.564C32.2246 80.258 33.1066 81.21 34.6326 81.21C35.0946 81.21 35.5986 81.126 36.1586 80.958L35.9626 79.852ZM37.2176 78.872C37.3856 80.454 38.5616 81.21 40.2556 81.21C41.9356 81.21 43.0836 80.412 43.0836 79.11C43.0836 78.102 42.4256 77.486 41.1236 77.262L39.8636 77.052C39.1216 76.926 38.7576 76.632 38.7576 76.17C38.7576 75.652 39.2896 75.274 40.1856 75.274C41.1236 75.274 41.7536 75.666 41.8516 76.408L43.0416 76.394C42.9716 75.652 42.6636 75.106 42.1036 74.77C41.5436 74.434 40.8996 74.266 40.1716 74.266C38.5616 74.266 37.4836 75.05 37.4836 76.282C37.4836 77.276 38.1276 77.878 39.4296 78.102L40.8856 78.354C41.5296 78.466 41.8516 78.746 41.8516 79.208C41.8516 79.782 41.2356 80.16 40.2976 80.16C39.2196 80.16 38.5896 79.74 38.4216 78.886L37.2176 78.872ZM54.9578 77.668C54.9438 76.674 54.6498 75.876 54.0478 75.246C53.4458 74.616 52.6898 74.294 51.7658 74.294C50.7578 74.294 49.9318 74.616 49.2878 75.274C48.6578 75.932 48.3358 76.744 48.3358 77.738C48.3358 78.718 48.6578 79.53 49.2878 80.188C49.9318 80.846 50.7578 81.168 51.7658 81.168C53.2358 81.168 54.4118 80.426 54.7897 79.264H53.4038C53.1098 79.81 52.5778 80.076 51.8078 80.076C50.5898 80.076 49.7918 79.306 49.6098 78.228H54.9018V78.214L54.9298 78.228C54.9438 78.102 54.9578 77.92 54.9578 77.668ZM51.7097 75.4C52.7878 75.4 53.5298 76.128 53.6558 77.262H49.6098C49.7778 76.156 50.5478 75.4 51.7097 75.4ZM57.9711 71.06H56.6831V81H57.9711V71.06ZM59.6531 78.872C59.8211 80.454 60.9971 81.21 62.6911 81.21C64.3711 81.21 65.5191 80.412 65.5191 79.11C65.5191 78.102 64.8611 77.486 63.5591 77.262L62.2991 77.052C61.5571 76.926 61.1931 76.632 61.1931 76.17C61.1931 75.652 61.7251 75.274 62.6211 75.274C63.5591 75.274 64.1891 75.666 64.2871 76.408L65.4771 76.394C65.4071 75.652 65.0991 75.106 64.5391 74.77C63.9791 74.434 63.3351 74.266 62.6071 74.266C60.9971 74.266 59.9191 75.05 59.9191 76.282C59.9191 77.276 60.5631 77.878 61.8651 78.102L63.3211 78.354C63.9651 78.466 64.2871 78.746 64.2871 79.208C64.2871 79.782 63.6711 80.16 62.7331 80.16C61.6551 80.16 61.0251 79.74 60.8571 78.886L59.6531 78.872ZM77.5753 71.06H76.2873V75.036C75.7133 74.546 74.9853 74.294 74.1033 74.294C73.1793 74.294 72.3953 74.63 71.7373 75.302C71.0933 75.96 70.7713 76.772 70.7713 77.724C70.7713 78.676 71.0793 79.488 71.7373 80.16C72.3813 80.818 73.1793 81.154 74.1033 81.154C74.9853 81.154 75.7133 80.902 76.2873 80.412V81H77.5753V71.06ZM74.2853 80.048C73.6553 80.048 73.1373 79.824 72.7033 79.362C72.2693 78.9 72.0593 78.354 72.0593 77.724C72.0593 77.094 72.2693 76.548 72.7033 76.1C73.1373 75.638 73.6553 75.414 74.2853 75.414C75.1393 75.414 75.8113 75.764 76.2873 76.464V78.998C75.7973 79.698 75.1393 80.048 74.2853 80.048ZM80.9946 74.462H79.7066V81H80.9946V76.814C81.5966 75.988 82.4086 75.554 83.4586 75.526V74.308C82.4646 74.308 81.6386 74.686 80.9946 75.428V74.462ZM90.9695 77.668C90.9555 76.674 90.6615 75.876 90.0595 75.246C89.4575 74.616 88.7015 74.294 87.7775 74.294C86.7695 74.294 85.9435 74.616 85.2995 75.274C84.6695 75.932 84.3475 76.744 84.3475 77.738C84.3475 78.718 84.6695 79.53 85.2995 80.188C85.9435 80.846 86.7695 81.168 87.7775 81.168C89.2475 81.168 90.4235 80.426 90.8015 79.264H89.4155C89.1215 79.81 88.5895 80.076 87.8195 80.076C86.6015 80.076 85.8035 79.306 85.6215 78.228H90.9135V78.214L90.9415 78.228C90.9555 78.102 90.9695 77.92 90.9695 77.668ZM87.7215 75.4C88.7995 75.4 89.5415 76.128 89.6675 77.262H85.6215C85.7895 76.156 86.5595 75.4 87.7215 75.4ZM97.1032 79.852C96.7252 79.964 96.3612 80.02 96.0112 80.02C95.1012 80.02 94.6532 79.53 94.6532 78.564V75.54H97.1032V74.462H94.6532V72.054H93.3652V74.462H91.7552V75.54H93.3652V78.564C93.3652 80.258 94.2472 81.21 95.7732 81.21C96.2352 81.21 96.7392 81.126 97.2992 80.958L97.1032 79.852ZM98.3582 78.872C98.5262 80.454 99.7022 81.21 101.396 81.21C103.076 81.21 104.224 80.412 104.224 79.11C104.224 78.102 103.566 77.486 102.264 77.262L101.004 77.052C100.262 76.926 99.8982 76.632 99.8982 76.17C99.8982 75.652 100.43 75.274 101.326 75.274C102.264 75.274 102.894 75.666 102.992 76.408L104.182 76.394C104.112 75.652 103.804 75.106 103.244 74.77C102.684 74.434 102.04 74.266 101.312 74.266C99.7022 74.266 98.6242 75.05 98.6242 76.282C98.6242 77.276 99.2682 77.878 100.57 78.102L102.026 78.354C102.67 78.466 102.992 78.746 102.992 79.208C102.992 79.782 102.376 80.16 101.438 80.16C100.36 80.16 99.7302 79.74 99.5622 78.886L98.3582 78.872ZM17.352 88.462H16.064V95H17.352V90.814C17.954 89.988 18.766 89.554 19.816 89.526V88.308C18.822 88.308 17.996 88.686 17.352 89.428V88.462ZM27.3269 91.668C27.3129 90.674 27.0189 89.876 26.4169 89.246C25.8149 88.616 25.0589 88.294 24.1349 88.294C23.1269 88.294 22.3009 88.616 21.6569 89.274C21.0269 89.932 20.7049 90.744 20.7049 91.738C20.7049 92.718 21.0269 93.53 21.6569 94.188C22.3009 94.846 23.1269 95.168 24.1349 95.168C25.6049 95.168 26.7809 94.426 27.1589 93.264H25.7729C25.4789 93.81 24.9469 94.076 24.1769 94.076C22.9589 94.076 22.1609 93.306 21.9789 92.228H27.2709V92.214L27.2989 92.228C27.3129 92.102 27.3269 91.92 27.3269 91.668ZM24.0789 89.4C25.1569 89.4 25.8989 90.128 26.0249 91.262H21.9789C22.1469 90.156 22.9169 89.4 24.0789 89.4ZM28.5633 92.872C28.7313 94.454 29.9073 95.21 31.6013 95.21C33.2813 95.21 34.4293 94.412 34.4293 93.11C34.4293 92.102 33.7713 91.486 32.4693 91.262L31.2093 91.052C30.4673 90.926 30.1033 90.632 30.1033 90.17C30.1033 89.652 30.6353 89.274 31.5313 89.274C32.4693 89.274 33.0993 89.666 33.1973 90.408L34.3873 90.394C34.3173 89.652 34.0093 89.106 33.4493 88.77C32.8893 88.434 32.2453 88.266 31.5173 88.266C29.9073 88.266 28.8293 89.05 28.8293 90.282C28.8293 91.276 29.4733 91.878 30.7753 92.102L32.2313 92.354C32.8753 92.466 33.1973 92.746 33.1973 93.208C33.1973 93.782 32.5813 94.16 31.6433 94.16C30.5653 94.16 29.9353 93.74 29.7673 92.886L28.5633 92.872ZM42.3933 91.668C42.3793 90.674 42.0853 89.876 41.4833 89.246C40.8813 88.616 40.1253 88.294 39.2013 88.294C38.1933 88.294 37.3673 88.616 36.7233 89.274C36.0933 89.932 35.7713 90.744 35.7713 91.738C35.7713 92.718 36.0933 93.53 36.7233 94.188C37.3673 94.846 38.1933 95.168 39.2013 95.168C40.6713 95.168 41.8473 94.426 42.2253 93.264H40.8393C40.5453 93.81 40.0133 94.076 39.2433 94.076C38.0253 94.076 37.2273 93.306 37.0453 92.228H42.3373V92.214L42.3653 92.228C42.3793 92.102 42.3933 91.92 42.3933 91.668ZM39.1453 89.4C40.2233 89.4 40.9653 90.128 41.0913 91.262H37.0453C37.2133 90.156 37.9833 89.4 39.1453 89.4ZM45.3383 88.462H44.0503V95H45.3383V90.814C45.9403 89.988 46.7523 89.554 47.8023 89.526V88.308C46.8083 88.308 45.9823 88.686 45.3383 89.428V88.462ZM55.8673 88.462H54.4953L52.2273 93.362L49.9453 88.462H48.5873L51.6533 95H52.8013L55.8673 88.462ZM63.2062 88.462H61.9182V89.036C61.3162 88.546 60.5882 88.294 59.7342 88.294C58.8102 88.294 58.0262 88.63 57.3682 89.302C56.7242 89.96 56.4022 90.772 56.4022 91.738C56.4022 92.69 56.7102 93.502 57.3682 94.174C58.0122 94.832 58.8102 95.168 59.7342 95.168C60.5882 95.168 61.3162 94.916 61.9182 94.426V95H63.2062V88.462ZM59.9162 94.048C59.2862 94.048 58.7682 93.824 58.3342 93.362C57.9002 92.9 57.6902 92.368 57.6902 91.738C57.6902 91.108 57.9002 90.562 58.3342 90.1C58.7682 89.638 59.2862 89.414 59.9162 89.414C60.7702 89.414 61.4422 89.764 61.9182 90.464V92.998C61.4422 93.698 60.7702 94.048 59.9162 94.048ZM69.6774 93.852C69.2994 93.964 68.9354 94.02 68.5854 94.02C67.6754 94.02 67.2274 93.53 67.2274 92.564V89.54H69.6774V88.462H67.2274V86.054H65.9394V88.462H64.3294V89.54H65.9394V92.564C65.9394 94.258 66.8214 95.21 68.3474 95.21C68.8094 95.21 69.3134 95.126 69.8734 94.958L69.6774 93.852ZM70.9324 92.872C71.1004 94.454 72.2764 95.21 73.9704 95.21C75.6504 95.21 76.7984 94.412 76.7984 93.11C76.7984 92.102 76.1404 91.486 74.8384 91.262L73.5784 91.052C72.8364 90.926 72.4724 90.632 72.4724 90.17C72.4724 89.652 73.0044 89.274 73.9004 89.274C74.8384 89.274 75.4684 89.666 75.5664 90.408L76.7564 90.394C76.6864 89.652 76.3784 89.106 75.8184 88.77C75.2584 88.434 74.6144 88.266 73.8864 88.266C72.2764 88.266 71.1984 89.05 71.1984 90.282C71.1984 91.276 71.8424 91.878 73.1444 92.102L74.6004 92.354C75.2444 92.466 75.5664 92.746 75.5664 93.208C75.5664 93.782 74.9504 94.16 74.0124 94.16C72.9344 94.16 72.3044 93.74 72.1364 92.886L70.9324 92.872ZM83.6606 86.698C82.6666 87.65 82.1626 88.826 82.1626 90.24C82.1626 91.654 82.6666 92.83 83.6606 93.782C84.6546 94.734 85.8586 95.21 87.2586 95.21C88.6586 95.21 89.8626 94.734 90.8566 93.782C91.8506 92.83 92.3546 91.654 92.3546 90.24C92.3546 88.826 91.8506 87.65 90.8566 86.698C89.8626 85.746 88.6586 85.27 87.2586 85.27C85.8586 85.27 84.6546 85.746 83.6606 86.698ZM84.3046 93.152C83.4786 92.354 83.0726 91.388 83.0726 90.24C83.0726 89.092 83.4786 88.126 84.3046 87.328C85.1306 86.53 86.1106 86.138 87.2446 86.138C88.3786 86.138 89.3586 86.53 90.1846 87.328C91.0106 88.126 91.4306 89.092 91.4306 90.24C91.4306 91.388 91.0106 92.354 90.1846 93.152C89.3586 93.95 88.3786 94.342 87.2446 94.342C86.1106 94.342 85.1306 93.95 84.3046 93.152ZM87.2586 88.7C87.9166 88.7 88.4626 89.078 88.6306 89.624H89.6526C89.4286 88.518 88.4626 87.776 87.2726 87.776C86.5586 87.776 85.9706 88.014 85.4806 88.49C84.9906 88.966 84.7526 89.554 84.7526 90.254C84.7526 90.954 84.9906 91.542 85.4806 92.018C85.9706 92.494 86.5586 92.732 87.2726 92.732C88.4626 92.732 89.4286 91.99 89.6526 90.884H88.6306C88.4626 91.444 87.9166 91.822 87.2586 91.822C86.4046 91.822 85.7326 91.136 85.7326 90.254C85.7326 89.4 86.4046 88.7 87.2586 88.7ZM100.343 93.894H95.9891L98.1451 91.5C98.9011 90.66 99.4471 90.03 99.7411 89.568C100.035 89.106 100.189 88.63 100.189 88.112C100.189 87.314 99.8951 86.642 99.3071 86.096C98.7331 85.55 97.9491 85.27 96.9551 85.27C96.0031 85.27 95.2331 85.536 94.6591 86.068C94.0851 86.6 93.7771 87.3 93.7351 88.182H95.0511C95.1771 87.104 95.9331 86.418 97.0111 86.418C98.1731 86.418 98.8591 87.16 98.8591 88.098C98.8591 88.462 98.7191 88.854 98.4531 89.274C98.2711 89.54 97.7951 90.086 97.0251 90.94L94.0151 94.3V95H100.343V93.894ZM105.885 85.27C104.597 85.27 103.575 85.732 102.833 86.656C102.091 87.566 101.713 88.77 101.713 90.24C101.713 91.71 102.091 92.914 102.833 93.838C103.575 94.748 104.597 95.21 105.885 95.21C107.187 95.21 108.195 94.748 108.937 93.838C109.679 92.928 110.057 91.724 110.057 90.24C110.057 88.756 109.679 87.552 108.937 86.642C108.195 85.732 107.187 85.27 105.885 85.27ZM103.799 92.97C103.309 92.27 103.057 91.36 103.057 90.24C103.057 89.12 103.309 88.21 103.799 87.524C104.289 86.824 104.989 86.474 105.885 86.474C106.781 86.474 107.481 86.824 107.971 87.524C108.461 88.21 108.713 89.12 108.713 90.24C108.713 91.36 108.461 92.27 107.971 92.97C107.481 93.656 106.781 94.006 105.885 94.006C104.989 94.006 104.289 93.656 103.799 92.97ZM117.775 93.894H113.421L115.577 91.5C116.333 90.66 116.879 90.03 117.173 89.568C117.467 89.106 117.621 88.63 117.621 88.112C117.621 87.314 117.327 86.642 116.739 86.096C116.165 85.55 115.381 85.27 114.387 85.27C113.435 85.27 112.665 85.536 112.091 86.068C111.517 86.6 111.209 87.3 111.167 88.182H112.483C112.609 87.104 113.365 86.418 114.443 86.418C115.605 86.418 116.291 87.16 116.291 88.098C116.291 88.462 116.151 88.854 115.885 89.274C115.703 89.54 115.227 90.086 114.457 90.94L111.447 94.3V95H117.775V93.894ZM125.609 93.894H121.255L123.411 91.5C124.167 90.66 124.713 90.03 125.007 89.568C125.301 89.106 125.455 88.63 125.455 88.112C125.455 87.314 125.161 86.642 124.573 86.096C123.999 85.55 123.215 85.27 122.221 85.27C121.269 85.27 120.499 85.536 119.925 86.068C119.351 86.6 119.043 87.3 119.001 88.182H120.317C120.443 87.104 121.199 86.418 122.277 86.418C123.439 86.418 124.125 87.16 124.125 88.098C124.125 88.462 123.985 88.854 123.719 89.274C123.537 89.54 123.061 90.086 122.291 90.94L119.281 94.3V95H125.609V93.894Z" fill="#FFC354"/>
<rect x="43.0168" y="49.3328" width="48.6505" height="97.301" transform="rotate(-90 43.0168 49.3328)" stroke="#FFC354" stroke-width="1.36563"/>
<path d="M56.6738 14.2422C56.6738 15.7127 57.97 16.9981 60.114 16.9981C62.0046 16.9981 63.3398 15.9756 63.5249 14.5927L62.5699 14.583C62.4724 15.5179 61.6538 16.4528 60.1237 16.4528C58.4475 16.4528 57.6094 15.3816 57.6094 14.2422C57.6094 13.2488 58.3598 12.0608 60.1042 12.0608C61.4004 12.0608 62.258 12.684 62.4724 13.541L63.4372 13.5313C63.1741 12.3042 61.8584 11.4765 60.1432 11.4765C58.0187 11.4765 56.6738 12.7522 56.6738 14.2422Z" fill="#FFC354"/>
<path d="M64.1162 14.3103C64.1162 15.9951 65.7924 17.0663 67.5564 17.0663C69.3008 17.0663 70.9673 16.0243 70.9673 14.3103C70.9673 12.5866 69.33 11.5349 67.5856 11.5349C65.8217 11.5349 64.1162 12.6061 64.1162 14.3103ZM67.5466 12.1192C68.9597 12.1192 69.9635 13.093 69.9635 14.3103C69.9635 15.5276 68.911 16.5112 67.5466 16.5112C66.1725 16.5112 65.1297 15.5276 65.1297 14.3103C65.1297 13.1515 66.114 12.1192 67.5466 12.1192Z" fill="#FFC354"/>
<path d="M72.2079 16.9105H73.1824V14.1058C73.2994 13.0638 74.0985 12.2263 75.2192 12.2263C76.2425 12.2263 76.759 12.8593 76.759 14.0766V16.9105H77.7141V14.3298C77.87 13.2683 78.5814 12.2263 79.7704 12.2263C80.7742 12.2263 81.2907 12.8885 81.2907 13.8137V16.9105H82.2457V13.8137C82.2457 12.5574 81.2809 11.6615 80.0238 11.6615C78.8835 11.6615 78.0357 12.4503 77.5581 13.4728C77.373 12.4308 76.6518 11.6615 75.4726 11.6615C74.4396 11.6615 73.6405 12.2361 73.1824 13.132V11.6031H72.2079V16.9105Z" fill="#FFC354"/>
<path d="M83.877 19.0822H84.8515V15.1478C85.3778 15.9561 86.8688 16.8423 88.1747 16.8423C90.1141 16.8423 91.3615 15.7516 91.3615 14.2811C91.3615 12.8593 90.0361 11.5446 88.0286 11.5446C86.6447 11.5446 85.3583 12.3529 84.8515 13.1417V11.6323H83.877V19.0822ZM84.8515 14.1448C84.8515 13.3365 86.1184 12.0997 87.7557 12.0997C89.3832 12.0997 90.387 13.093 90.387 14.2909C90.387 15.3718 89.5294 16.2775 87.9213 16.2775C86.2938 16.2775 84.8515 14.9725 84.8515 14.1448Z" fill="#FFC354"/>
<path d="M93.5776 16.9105V14.3396C93.5776 13.8721 94.4059 12.3432 96.0139 12.2653C96.1309 12.2458 96.2576 12.2361 96.3843 12.2361C96.7156 12.2361 97.0372 12.3042 97.2614 12.4113V11.7491C96.9787 11.6225 96.6474 11.5446 96.3453 11.5446C95.1076 11.5544 94.1525 12.1776 93.5776 13.1709V11.4375H92.603V16.9105H93.5776Z" fill="#FFC354"/>
<path d="M99.6345 16.9689C100.726 16.9689 102.188 16.4041 102.987 15.8393V16.9105H103.961V13.9013C103.961 12.5379 103.182 11.8563 102.285 11.7297H98.6307L98.9035 12.4406H101.798C102.285 12.4406 102.997 12.7814 102.997 13.9208C102.997 14.0279 102.987 14.4077 102.987 14.7875C102.149 14.213 100.911 13.6579 99.7612 13.6579C98.6502 13.6579 97.2468 14.1837 97.2468 15.3426C97.2468 16.5015 98.6307 16.9689 99.6345 16.9689ZM100.034 14.1643C101.379 14.1643 102.675 15.0602 102.987 15.2842V15.3718C102.402 15.7516 101.135 16.482 99.9756 16.482C99.2349 16.482 98.2214 16.1801 98.2214 15.3329C98.2214 14.4954 99.2057 14.1643 100.034 14.1643Z" fill="#FFC354"/>
<path d="M59.1297 27.7255C60.2212 27.7255 61.683 27.1606 62.4822 26.5958V27.667H63.4567V24.6579C63.4567 23.2945 62.6771 22.6128 61.7805 22.4862H58.1259L58.3988 23.1971H61.2932C61.7805 23.1971 62.4919 23.5379 62.4919 24.6773C62.4919 24.7845 62.4822 25.1643 62.4822 25.544C61.644 24.9695 60.4064 24.4144 59.2564 24.4144C58.1454 24.4144 56.742 24.9403 56.742 26.0991C56.742 27.258 58.1259 27.7255 59.1297 27.7255ZM59.5293 24.9208C60.8741 24.9208 62.1703 25.8167 62.4822 26.0407V26.1284C61.8974 26.5082 60.6305 27.2385 59.4708 27.2385C58.7301 27.2385 57.7166 26.9366 57.7166 26.0894C57.7166 25.2519 58.7009 24.9208 59.5293 24.9208Z" fill="#FFC354"/>
<path d="M65.032 27.667H66.0065V24.8624C66.1235 23.8203 66.9226 22.9828 68.0433 22.9828C69.0666 22.9828 69.5831 23.6158 69.5831 24.8331V27.667H70.5382V25.0863C70.6941 24.0249 71.4055 22.9828 72.5945 22.9828C73.5983 22.9828 74.1148 23.6451 74.1148 24.5702V27.667H75.0698V24.5702C75.0698 23.3139 74.105 22.418 72.8479 22.418C71.7076 22.418 70.8598 23.2068 70.3823 24.2294C70.1971 23.1874 69.4759 22.418 68.2967 22.418C67.2637 22.418 66.4646 22.9926 66.0065 23.8885V22.3596H65.032V27.667Z" fill="#FFC354"/>
<path d="M76.7011 27.667H77.6756V26.177C78.1337 26.9269 79.4688 27.7644 80.7942 27.7644C82.87 27.7644 84.1856 26.4302 84.1856 25.0182C84.1856 23.5477 82.9382 22.457 80.9988 22.457C79.7027 22.457 78.2019 23.3334 77.6756 24.1515V20.2171H76.7011V27.667ZM77.6756 25.1642C77.6756 24.3073 79.118 23.0218 80.7455 23.0218C82.3535 23.0218 83.2111 23.908 83.2111 25.0182C83.2111 26.255 82.1293 27.1898 80.4823 27.1898C78.9425 27.1898 77.6756 26.0018 77.6756 25.1642Z" fill="#FFC354"/>
<path d="M56.6738 35.7552C56.6738 37.2257 57.97 38.5112 60.114 38.5112C62.0046 38.5112 63.3398 37.4887 63.5249 36.1058L62.5699 36.0961C62.4724 37.031 61.6538 37.9658 60.1237 37.9658C58.4475 37.9658 57.6094 36.8946 57.6094 35.7552C57.6094 34.7619 58.3598 33.5738 60.1042 33.5738C61.4004 33.5738 62.258 34.1971 62.4724 35.0541L63.4372 35.0443C63.1741 33.8173 61.8584 32.9895 60.1432 32.9895C58.0187 32.9895 56.6738 34.2652 56.6738 35.7552Z" fill="#FFC354"/>
<path d="M64.1162 35.8234C64.1162 37.5081 65.7924 38.5794 67.5564 38.5794C69.3008 38.5794 70.9673 37.5374 70.9673 35.8234C70.9673 34.0997 69.33 33.0479 67.5856 33.0479C65.8217 33.0479 64.1162 34.1192 64.1162 35.8234ZM67.5466 33.6323C68.9597 33.6323 69.9635 34.6061 69.9635 35.8234C69.9635 37.0407 68.911 38.0243 67.5466 38.0243C66.1725 38.0243 65.1297 37.0407 65.1297 35.8234C65.1297 34.6645 66.114 33.6323 67.5466 33.6323Z" fill="#FFC354"/>
<path d="M72.2079 33.1161V38.4236H73.1824V35.8039C73.5333 34.7716 74.5273 33.7783 75.8722 33.7783C77.1878 33.7783 77.909 34.7716 77.909 35.5702V38.4236H78.864V35.5702C78.864 34.0705 77.4899 33.2135 76.0378 33.2135C74.8391 33.2135 73.8451 33.8952 73.1824 34.8106V33.1161H72.2079Z" fill="#FFC354"/>
<path d="M79.7969 34.6743C79.7969 37.0017 85.4104 35.317 85.4104 36.8946C85.4104 37.5374 84.4943 37.8977 83.0617 37.8977C82.0871 37.8977 80.8592 37.8392 80.8397 36.8459H79.8359C79.8457 37.8977 80.8787 38.5209 83.0909 38.5209C84.5625 38.5209 86.3264 38.0924 86.3362 36.8946C86.3362 34.645 80.8202 36.2616 80.8202 34.723C80.8202 33.9536 81.7266 33.6809 83.1591 33.6809C84.2994 33.6809 85.2544 33.7783 85.2544 34.7619H86.2095C86.2095 33.3011 84.7282 33.0479 83.1591 33.0479C81.4634 33.0479 79.7969 33.4472 79.7969 34.6743Z" fill="#FFC354"/>
<path d="M87.0334 35.7552C87.0334 37.2257 88.3295 38.5112 90.4735 38.5112C92.3642 38.5112 93.6993 37.4887 93.8845 36.1058L92.9294 36.0961C92.8319 37.031 92.0133 37.9658 90.4833 37.9658C88.807 37.9658 87.9689 36.8946 87.9689 35.7552C87.9689 34.7619 88.7193 33.5738 90.4638 33.5738C91.7599 33.5738 92.6175 34.1971 92.8319 35.0541L93.7967 35.0443C93.5336 33.8173 92.218 32.9895 90.5028 32.9895C88.3782 32.9895 87.0334 34.2652 87.0334 35.7552Z" fill="#FFC354"/>
<path d="M96.0404 38.4236V33.5543H95.0561V38.4236H96.0404ZM96.0404 32.6V30.9834H95.0561V32.6H96.0404Z" fill="#FFC354"/>
<path d="M97.2566 35.8137C97.2566 37.2452 98.543 38.5209 100.697 38.5209C102.237 38.5209 103.347 37.8782 103.786 36.992L103.006 36.8849C102.587 37.5276 101.808 37.9951 100.687 37.9951C99.1667 37.9951 98.3675 37.0797 98.2993 36.1642C98.8256 36.1642 103.611 36.1448 104.069 36.1448C104.088 36.0474 104.098 35.9305 104.098 35.8429C104.088 33.9634 102.529 33.0772 100.726 33.0772C98.5917 33.0772 97.2566 34.3432 97.2566 35.8137ZM100.687 33.6323C102.012 33.6323 103.055 34.3724 103.075 35.726L98.2798 35.7455C98.2603 34.6743 99.0985 33.6323 100.687 33.6323ZM99.0205 31.967L102.422 32.7461V32.1131L99.0205 31.3437V31.967Z" fill="#FFC354"/>
<path d="M105.413 33.1161V38.4236H106.388V35.8039C106.738 34.7716 107.732 33.7783 109.077 33.7783C110.393 33.7783 111.114 34.7716 111.114 35.5702V38.4236H112.069V35.5702C112.069 34.0705 110.695 33.2135 109.243 33.2135C108.044 33.2135 107.05 33.8952 106.388 34.8106V33.1161H105.413Z" fill="#FFC354"/>
<path d="M113.148 35.7552C113.148 37.2257 114.444 38.5112 116.588 38.5112C118.479 38.5112 119.814 37.4887 119.999 36.1058L119.044 36.0961C118.947 37.031 118.128 37.9658 116.598 37.9658C114.922 37.9658 114.084 36.8946 114.084 35.7552C114.084 34.7619 114.834 33.5738 116.579 33.5738C117.875 33.5738 118.732 34.1971 118.947 35.0541L119.912 35.0443C119.649 33.8173 118.333 32.9895 116.618 32.9895C114.493 32.9895 113.148 34.2652 113.148 35.7552Z" fill="#FFC354"/>
<path d="M122.155 38.4236V33.5543H121.171V38.4236H122.155ZM122.155 32.6V30.9834H121.171V32.6H122.155Z" fill="#FFC354"/>
<path d="M125.749 38.482C126.841 38.482 128.303 37.9172 129.102 37.3523V38.4236H130.076V35.4144C130.076 34.051 129.297 33.3693 128.4 33.2427H124.746L125.018 33.9536H127.913C128.4 33.9536 129.112 34.2945 129.112 35.4339C129.112 35.541 129.102 35.9208 129.102 36.3006C128.264 35.726 127.026 35.1709 125.876 35.1709C124.765 35.1709 123.362 35.6968 123.362 36.8557C123.362 38.0145 124.746 38.482 125.749 38.482ZM126.149 35.6773C127.494 35.6773 128.79 36.5733 129.102 36.7972V36.8849C128.517 37.2647 127.25 37.9951 126.09 37.9951C125.35 37.9951 124.336 37.6932 124.336 36.8459C124.336 36.0084 125.321 35.6773 126.149 35.6773Z" fill="#FFC354"/>
<path fill-rule="evenodd" clip-rule="evenodd" d="M50.0012 25.0006C50.0012 38.8081 38.8081 50.0012 25.0006 50.0012C11.1932 50.0012 0 38.8081 0 25.0006C0 11.1932 11.1932 0 25.0006 0C38.8081 0 50.0012 11.1932 50.0012 25.0006ZM9.63281 18.8859C9.63281 22.4753 12.8155 25.0392 16.7409 25.0392C20.2242 25.0392 22.9649 23.4655 23.5484 20.5657L21.9217 20.3535C21.4266 22.7052 19.4462 23.8545 16.7232 23.8545C13.5051 23.8545 11.3479 21.8565 11.3479 18.9036C11.3479 15.9154 13.6466 13.9173 16.7055 13.935C19.2871 13.9527 21.568 15.049 21.9394 17.5421L23.6191 17.383C23.1771 14.3948 20.2419 12.7327 16.7055 12.7327C12.7625 12.7327 9.63281 15.2788 9.63281 18.8859ZM32.1607 25.0392C36.1037 25.0392 39.2334 22.44 39.2334 18.8859C39.2334 15.2965 36.0507 12.7327 32.196 12.7327C28.1823 12.7327 25.0526 15.5087 25.0526 18.9567C25.0526 22.44 28.2353 25.0392 32.1607 25.0392ZM26.8561 18.992C26.8561 16.0745 29.2255 14.0234 32.2668 14.0411C35.1312 14.0411 37.4475 15.8977 37.4475 18.8859C37.4475 21.9449 35.0075 23.7661 32.1253 23.7661C29.2609 23.7661 26.8561 21.9272 26.8561 18.992ZM9.63281 32.8547C9.63281 36.4441 12.8155 39.008 16.7409 39.008C20.2242 39.008 22.9649 37.4343 23.5484 34.5345L21.9217 34.3223C21.4266 36.674 19.4462 37.8233 16.7232 37.8233C13.5051 37.8233 11.3479 35.8252 11.3479 32.8724C11.3479 29.8841 13.6466 27.8861 16.7055 27.9038C19.2871 27.9215 21.568 29.0177 21.9394 31.5109L23.6191 31.3517C23.1771 28.3635 20.2419 26.7014 16.7055 26.7014C12.7625 26.7014 9.63281 29.2476 9.63281 32.8547ZM32.1607 39.008C36.1037 39.008 39.2334 36.4087 39.2334 32.8547C39.2334 29.2653 36.0507 26.7014 32.196 26.7014C28.1823 26.7014 25.0526 29.4775 25.0526 32.9254C25.0526 36.4087 28.2353 39.008 32.1607 39.008ZM26.8561 32.9608C26.8561 30.0433 29.2255 27.9922 32.2668 28.0099C35.1312 28.0099 37.4475 29.8665 37.4475 32.8547C37.4475 35.9136 35.0075 37.7349 32.1253 37.7349C29.2609 37.7349 26.8561 35.896 26.8561 32.9608Z" fill="#FFC354"/>
</svg>
