<svg width="126" height="44" viewBox="0 0 126 44" fill="none" xmlns="http://www.w3.org/2000/svg">
<path d="M21.1727 8.86221C21.3261 8.77552 21.5273 8.78827 21.716 8.8928C21.5299 8.77807 21.4192 8.61235 21.4192 8.43389C21.4192 8.25542 21.5299 8.0897 21.716 7.97497C21.8971 8.0897 22.0103 8.25287 22.0103 8.43389C22.0103 8.6149 21.8971 8.78062 21.7185 8.8928C21.9046 8.78827 22.1033 8.77297 22.2542 8.86221C22.4152 8.95399 22.4982 9.13501 22.5058 9.35172C22.3146 9.45625 22.1159 9.47155 21.9625 9.37977C21.804 9.28798 21.7235 9.10696 21.7185 8.89025C21.711 9.10441 21.628 9.28798 21.472 9.37977C21.3136 9.469 21.1174 9.4537 20.9313 9.35172C20.9388 9.13246 21.0218 8.95399 21.1752 8.86221M23.1723 8.96164C22.9987 9.02028 22.8805 9.1809 22.8302 9.38996C22.9937 9.53019 23.1848 9.58883 23.3534 9.53274C23.5244 9.47665 23.6451 9.31603 23.6929 9.10697C23.6552 9.31858 23.7005 9.51234 23.8338 9.63472C23.9671 9.7571 24.1632 9.78004 24.372 9.72141C24.4072 9.50979 24.3645 9.31348 24.2312 9.1911C24.0953 9.07127 23.9017 9.04578 23.6954 9.10951C23.8966 9.03303 24.0425 8.90045 24.0777 8.71943C24.1155 8.54097 24.04 8.35995 23.8841 8.20953C23.6828 8.28346 23.537 8.41859 23.4992 8.59451C23.4615 8.77297 23.542 8.95654 23.6929 9.10441C23.5319 8.96674 23.3433 8.9081 23.1723 8.96419M25.6044 9.72395C25.8132 9.69336 25.9842 9.59138 26.0597 9.42566C26.1351 9.25739 26.0949 9.06107 25.9767 8.8826C25.7604 8.9132 25.5919 9.01773 25.5164 9.18345C25.446 9.34917 25.4837 9.54294 25.6019 9.72395C25.4736 9.55313 25.3001 9.45625 25.1215 9.4741C24.9404 9.49195 24.792 9.62452 24.699 9.81829C24.8323 9.98911 25.0033 10.0885 25.1819 10.0707C25.3605 10.0503 25.5089 9.92027 25.6044 9.7265M19.1581 9.1962C19.0222 9.31858 18.9795 9.51489 19.0172 9.7265C19.2235 9.78514 19.4196 9.7622 19.5529 9.63982C19.6837 9.51744 19.7315 9.32623 19.6913 9.11206C19.4875 9.05088 19.2888 9.07127 19.1581 9.19365M20.0333 9.53529C20.2044 9.59138 20.3955 9.53274 20.559 9.39251C20.5062 9.18345 20.388 9.02283 20.2169 8.96419C20.0484 8.91065 19.8623 8.96674 19.7013 9.10187C19.8522 8.95399 19.9277 8.77297 19.89 8.59706C19.8548 8.42114 19.7089 8.28346 19.5077 8.20953C19.3517 8.35995 19.2738 8.54607 19.3115 8.72198C19.3492 8.8979 19.4926 9.03303 19.6938 9.10697C19.7441 9.31858 19.8648 9.47665 20.0359 9.53274M17.8753 9.1809C17.8024 9.01518 17.6313 8.91065 17.4176 8.88006C17.2993 9.05852 17.2591 9.25484 17.3295 9.42311C17.405 9.58883 17.576 9.69081 17.7873 9.72141C17.8804 9.91517 18.0262 10.0477 18.2073 10.0656C18.3859 10.086 18.5594 9.98656 18.6902 9.81319C18.5972 9.61942 18.4488 9.4894 18.2702 9.469C18.0891 9.45115 17.9181 9.54804 17.7873 9.71885C17.908 9.53784 17.9457 9.34152 17.8728 9.17835M21.7084 5.04809C21.975 5.04809 22.1939 4.82883 22.1939 4.55603C22.1939 4.28323 21.975 4.06652 21.7084 4.06652C21.4418 4.06652 21.2205 4.28578 21.2205 4.55603C21.2205 4.82628 21.4393 5.04809 21.7084 5.04809ZM21.7059 10.5653C22.8352 10.5653 23.9042 10.8458 24.8122 11.2639L25.207 10.6571C24.1859 10.1625 22.9912 9.86928 21.711 9.86928C20.4307 9.86928 19.2385 10.1548 18.2048 10.6571L18.6022 11.2639C19.5102 10.8458 20.5791 10.5653 21.7059 10.5653ZM17.0604 8.74493L17.566 8.23247C17.3798 8.0795 17.2692 7.87299 17.2692 7.64863C17.2692 7.16931 17.7797 6.77668 18.4111 6.77668C18.5645 6.77668 18.7104 6.79963 18.8411 6.84042C18.8185 6.9373 18.8084 7.03674 18.8084 7.13362C18.8084 7.45231 18.9141 7.74551 19.1027 7.99791L19.6158 7.47781C19.5605 7.37328 19.5253 7.256 19.5253 7.13362C19.5253 6.6543 20.0384 6.26168 20.6722 6.26168C20.9313 6.26168 21.1727 6.32796 21.3613 6.43759V7.47016H22.0782V6.41975C22.2643 6.32032 22.4932 6.26168 22.7397 6.26168C23.371 6.26168 23.8866 6.6543 23.8866 7.13362C23.8866 7.256 23.8514 7.37328 23.7935 7.47781L24.3091 7.99791C24.4952 7.74806 24.6034 7.45231 24.6034 7.13362C24.6034 7.03419 24.5908 6.93475 24.5707 6.84042C24.7015 6.79963 24.8474 6.77668 24.9983 6.77668C25.6296 6.77668 26.1427 7.16931 26.1427 7.64863C26.1427 7.87299 26.032 8.0795 25.8459 8.23247L26.3514 8.74493C26.6658 8.45683 26.857 8.07185 26.857 7.64863C26.857 6.76648 26.027 6.05516 24.9933 6.05516C24.7241 6.05516 24.4676 6.10105 24.2387 6.19284C23.8966 5.79766 23.3534 5.5427 22.7371 5.5427C22.3548 5.5427 22.0002 5.64214 21.7059 5.80786C21.4091 5.64214 21.052 5.5427 20.6722 5.5427C20.0585 5.5427 19.5102 5.79766 19.1706 6.19284C18.9418 6.1036 18.6852 6.05516 18.4111 6.05516C17.3849 6.05516 16.5498 6.76648 16.5498 7.64863C16.5498 8.07185 16.741 8.45683 17.0579 8.74493M21.8719 26.4031H24.1507V23.5374H21.8719V26.4031ZM21.5424 20.3428H19.2662V23.2085H21.5424V20.3428ZM21.5424 12.9568L21.711 12.7885L21.8744 12.9542V23.2085H23.0138V14.1066L24.1532 15.2565V23.2085H25.2926V16.4114L26.4294 17.5612V23.211H27.5688V18.7136L28.7107 19.866V23.211H29.85V21.0159L30.9894 22.1683V23.211H32.0206L32.1866 23.3717L32.0181 23.5399H25.2926V26.4056H29.186L28.0492 27.558H25.2926V30.3396L24.1532 31.4996V27.558H21.8744V33.7942L21.711 33.9599L21.545 33.7942V23.5399H20.4056V32.6443L19.2687 31.4945V23.5399H18.1268V30.3421L16.9875 29.1923V23.5425H15.8506V28.0399L14.7087 26.8926V23.5425H13.5719V25.7376L12.4325 24.5878V23.5425H11.4013L11.2378 23.3793L11.4013 23.211H18.1294V20.3453H14.2384L15.3778 19.193H18.1294V16.4038L19.2712 15.2539V19.193H21.5475V12.9593L21.5424 12.9568ZM21.7059 35.4845C21.4519 35.4845 21.2406 35.6936 21.2406 35.9536C21.2406 36.2137 21.4494 36.4228 21.7059 36.4228C21.9625 36.4228 22.1712 36.2111 22.1712 35.9536C22.1712 35.6961 21.9625 35.4845 21.7059 35.4845ZM9.25331 22.9076C8.99928 22.9076 8.79052 23.1167 8.79052 23.3768C8.79052 23.6368 8.99928 23.8459 9.25331 23.8459C9.50735 23.8459 9.72114 23.6368 9.72114 23.3768C9.72114 23.1167 9.51238 22.9076 9.25331 22.9076ZM34.151 22.9076C33.897 22.9076 33.6882 23.1167 33.6882 23.3768C33.6882 23.6368 33.897 23.8459 34.151 23.8459C34.405 23.8459 34.6188 23.6368 34.6188 23.3768C34.6188 23.1167 34.4101 22.9076 34.151 22.9076ZM32.9513 23.3717L21.7034 12.0109L10.4531 23.3717L21.7034 34.7375L32.9513 23.3717ZM21.7034 11.8477C21.7034 11.8477 23.9595 13.1199 27.8505 17.0437C31.7867 21.021 33.1147 23.3691 33.1147 23.3691C33.1147 23.3691 31.8546 25.6509 27.9662 29.5798C24.0274 33.5545 21.7034 34.8956 21.7034 34.8956C21.7034 34.8956 19.4448 33.6234 15.5538 29.6945C11.6176 25.7172 10.2896 23.3691 10.2896 23.3691C10.2896 23.3691 11.5497 21.0898 15.4381 17.1584C19.3769 13.1837 21.7009 11.8477 21.7009 11.8477M125.997 22C125.997 34.1307 116.261 44 104.294 44H21.7034C9.73623 44 0 34.1307 0 22C0 9.86928 9.73623 0 21.7034 0H104.297C116.264 0 126 9.86928 126 22H125.997ZM21.7034 43.3626C33.3235 43.3626 42.778 33.7789 42.778 22C42.778 10.2211 33.3235 0.637386 21.7034 0.637386C10.0833 0.637386 0.628793 10.2211 0.628793 22C0.628793 33.7789 10.0833 43.3626 21.7034 43.3626ZM125.371 22C125.371 10.2211 115.917 0.637386 104.297 0.637386H26.8796C36.3543 2.99826 43.4068 11.6769 43.4068 22C43.4068 32.3231 36.3568 41.0017 26.8796 43.3626H104.297C115.917 43.3626 125.371 33.7789 125.371 22ZM55.5626 17.342L53.3493 10.9503H52.0967L49.8834 17.342H51.0404L51.4503 16.1157H53.958L54.3679 17.342H55.5677H55.5626ZM53.5983 15.0703H51.8025L52.7004 12.3755L53.5983 15.0703ZM57.3132 17.9921V12.6559H56.1914V17.7754C56.1914 18.0916 56.0053 18.2802 55.6582 18.2802C55.4897 18.2802 55.4444 18.2624 55.1149 18.2267V19.1828C55.3187 19.2363 55.4796 19.2643 55.6205 19.2822C55.7639 19.3 55.8871 19.3 56.0129 19.3C56.8403 19.3 57.3107 18.7952 57.3107 17.9921H57.3132ZM57.3409 11.9879V10.8254H56.1487V11.9879H57.3409ZM62.3461 17.342V12.6559H61.2344V15.1341C61.2344 15.514 61.1639 15.9372 60.8973 16.1896C60.764 16.3247 60.5854 16.4242 60.3289 16.4242C59.7429 16.4242 59.5291 16.0825 59.5291 15.5318V12.6559H58.4174V15.7842C58.4174 16.7836 59.0311 17.4618 60.017 17.4618C60.603 17.4618 61.1187 17.1916 61.3425 16.7326L61.423 17.3445H62.3486L62.3461 17.342ZM67.4493 17.342V14.2137C67.4493 13.2398 66.8708 12.5361 65.8849 12.5361C65.3517 12.5361 64.8009 12.7605 64.5242 13.2576L64.4437 12.6534H63.5106V17.3394H64.6223V15.4273C64.6223 15.0296 64.6122 14.5451 64.7732 14.1755C64.9241 13.8338 65.1832 13.5814 65.573 13.5814C66.159 13.5814 66.3376 13.9154 66.3376 14.4636V17.3394H67.4493V17.342ZM71.1567 17.2782V16.3324C70.8549 16.3681 70.6662 16.3783 70.4374 16.3783C70.0827 16.3783 69.9218 16.2253 69.9218 15.8658V13.584H71.0863V12.6559H69.9218V11.1874L68.81 11.4678V12.6585H67.965V13.5865H68.81V15.9652C68.81 16.8678 69.2728 17.4083 70.206 17.4083C70.5355 17.4083 70.8448 17.3624 71.1567 17.2833V17.2782ZM75.9053 17.2884V16.4598C75.9053 16.4598 75.8349 16.4777 75.762 16.4777C75.5759 16.4777 75.5029 16.3961 75.5029 16.1794V14.4406C75.5029 14.1245 75.4853 13.7905 75.3696 13.4947C75.103 12.7911 74.4264 12.5386 73.6367 12.5386C72.6054 12.5386 71.7779 13.0078 71.7151 14.0607H72.7916C72.8192 13.6273 73.121 13.3927 73.6367 13.3927C74.268 13.3927 74.4189 13.691 74.4189 14.1321V14.4202L73.0582 14.5196C72.1779 14.5834 71.4937 15.0958 71.4937 15.9882C71.4937 16.753 72.0622 17.4567 73.1663 17.4567C73.8253 17.4567 74.3585 17.1329 74.5723 16.753C74.6075 17.1049 74.8741 17.4108 75.3545 17.4108C75.6211 17.4108 75.7192 17.3649 75.9053 17.2833V17.2884ZM74.4214 15.4757C74.4214 16.1692 73.9334 16.5491 73.2393 16.5491C72.8922 16.5491 72.5803 16.3247 72.5803 15.9627C72.5803 15.5828 72.9098 15.3763 73.2468 15.3508L74.4214 15.2616V15.4783V15.4757ZM83.2069 17.342V14.178C83.2069 13.2041 82.6913 12.5386 81.7028 12.5386C81.0816 12.5386 80.5836 12.8191 80.3069 13.3035C80.0755 12.8267 79.6303 12.5386 78.9814 12.5386C78.3677 12.5386 77.9225 12.8446 77.666 13.278L77.5779 12.6559H76.6524V17.342H77.754V14.7822C77.754 14.1959 78.0382 13.5202 78.6695 13.5202C79.2304 13.5202 79.3813 13.8542 79.3813 14.4304V17.342H80.4829V14.7822C80.4829 14.1959 80.7596 13.5202 81.3909 13.5202C81.9518 13.5202 82.1027 13.8542 82.1027 14.4304V17.342H83.2044H83.2069ZM88.2121 15.0347C88.2297 14.4483 88.1492 13.918 87.8122 13.4029C87.4299 12.8165 86.8061 12.5386 86.122 12.5386C85.4907 12.5386 84.9927 12.7732 84.6456 13.1327C84.2004 13.5916 83.979 14.2596 83.979 15.0066C83.979 15.7536 84.228 16.4318 84.6908 16.8805C85.0555 17.2324 85.5183 17.4567 86.1496 17.4567C86.7357 17.4567 87.3142 17.268 87.7065 16.7989C87.8851 16.5822 88.0712 16.2125 88.0989 15.9346H87.0325C86.9872 16.1055 86.9067 16.2329 86.8111 16.3324C86.6501 16.4955 86.4565 16.5567 86.1345 16.5567C85.8327 16.5567 85.6089 16.4216 85.4504 16.2686C85.2291 16.0519 85.1033 15.7103 85.1134 15.3482H88.207C88.207 15.2488 88.2171 15.0321 88.2171 15.0321L88.2121 15.0347ZM87.1004 14.5298H85.0983C85.1084 14.2239 85.1788 14.0072 85.3397 13.8007C85.5007 13.584 85.7749 13.4412 86.1144 13.4412C86.4338 13.4412 86.6652 13.5483 86.8162 13.7114C86.9947 13.9103 87.0928 14.1806 87.1004 14.5324V14.5298ZM92.9683 17.342V14.2137C92.9683 13.2398 92.3898 12.5361 91.4038 12.5361C90.8706 12.5361 90.3198 12.7605 90.0431 13.2576L89.9626 12.6534H89.0295V17.3394H90.1412V15.4273C90.1412 15.0296 90.1311 14.5451 90.2921 14.1755C90.443 13.8338 90.7021 13.5814 91.0919 13.5814C91.678 13.5814 91.8566 13.9154 91.8566 14.4636V17.3394H92.9683V17.342ZM96.6756 17.2782V16.3324C96.3738 16.3681 96.1852 16.3783 95.9563 16.3783C95.6016 16.3783 95.4407 16.2253 95.4407 15.8658V13.584H96.6052V12.6559H95.4407V11.1874L94.329 11.4678V12.6585H93.4839V13.5865H94.329V15.9652C94.329 16.8678 94.7918 17.4083 95.7249 17.4083C96.0544 17.4083 96.3637 17.3624 96.6756 17.2833V17.2782ZM102.989 17.342V10.833H101.877V12.9772C101.681 12.7324 101.256 12.5361 100.667 12.5361C100.197 12.5361 99.8221 12.6814 99.5379 12.9134C98.9871 13.3723 98.7104 14.0862 98.7104 15.0041C98.7104 15.9219 98.977 16.5899 99.5278 17.0513C99.812 17.2859 100.194 17.4491 100.657 17.4491C101.165 17.4491 101.681 17.2604 101.955 16.827L102.025 17.342H102.986H102.989ZM101.93 14.9888C101.93 15.6644 101.751 16.5032 100.881 16.5032C100.534 16.5032 100.295 16.34 100.134 16.1335C99.9026 15.8276 99.8397 15.3941 99.8397 14.9888C99.8397 14.5834 99.9026 14.1602 100.134 13.8517C100.295 13.6452 100.534 13.482 100.881 13.482C101.751 13.482 101.93 14.3106 101.93 14.9862V14.9888ZM107.888 15.0347C107.906 14.4483 107.825 13.918 107.488 13.4029C107.106 12.8165 106.482 12.5386 105.798 12.5386C105.167 12.5386 104.669 12.7732 104.322 13.1327C103.877 13.5916 103.655 14.2596 103.655 15.0066C103.655 15.7536 103.904 16.4318 104.367 16.8805C104.732 17.2324 105.195 17.4567 105.826 17.4567C106.412 17.4567 106.99 17.268 107.383 16.7989C107.561 16.5822 107.747 16.2125 107.775 15.9346H106.709C106.663 16.1055 106.583 16.2329 106.487 16.3324C106.326 16.4955 106.133 16.5567 105.811 16.5567C105.509 16.5567 105.285 16.4216 105.127 16.2686C104.905 16.0519 104.78 15.7103 104.79 15.3482H107.883C107.883 15.2488 107.893 15.0321 107.893 15.0321L107.888 15.0347ZM106.777 14.5298H104.777C104.787 14.2239 104.857 14.0072 105.016 13.8007C105.177 13.584 105.451 13.4412 105.791 13.4412C106.11 13.4412 106.341 13.5483 106.492 13.7114C106.671 13.9103 106.769 14.1806 106.777 14.5324V14.5298ZM56.9586 27.5657C56.9586 26.7167 56.5134 25.9033 55.6632 25.5056C56.4253 25.1589 56.7674 24.3201 56.7674 23.5731C56.7674 22.7878 56.3876 22.028 55.7261 21.5895C55.1175 21.1892 54.3679 21.0873 53.6436 21.0873H50.062V30.2299H53.6436C54.5063 30.2299 55.3463 30.1534 56.0456 29.6129C56.6945 29.1107 56.9611 28.3764 56.9611 27.5657H56.9586ZM55.1049 23.6776C55.1049 24.5393 54.4836 24.8096 53.7467 24.8096H51.6893V22.5176H53.709C54.4459 22.5176 55.1074 22.8006 55.1074 23.6776H55.1049ZM55.296 27.5274C55.296 28.4554 54.4711 28.7384 53.709 28.7384H51.6893V26.2016H53.7593C54.622 26.2016 55.296 26.5484 55.296 27.5274ZM64.1872 30.1407V28.9552C64.1872 28.9552 64.0866 28.9806 63.9834 28.9806C63.7168 28.9806 63.6162 28.8659 63.6162 28.5549V26.0691C63.6162 25.6178 63.5911 25.141 63.4251 24.7178C63.0428 23.7133 62.0794 23.3538 60.9476 23.3538C59.4737 23.3538 58.2916 24.0243 58.2036 25.5311H59.7403C59.7781 24.9141 60.2107 24.5776 60.9476 24.5776C61.8506 24.5776 62.0669 25.0034 62.0669 25.6331V26.0461L60.1226 26.1889C58.8651 26.2781 57.8867 27.0124 57.8867 28.2872C57.8867 29.3809 58.6991 30.3854 60.2761 30.3854C61.2167 30.3854 61.9788 29.9214 62.2832 29.3809C62.3335 29.8832 62.7158 30.3217 63.3999 30.3217C63.7822 30.3217 63.9206 30.258 64.1872 30.1407ZM62.0669 27.5529C62.0669 28.5447 61.3677 29.0852 60.3767 29.0852C59.8812 29.0852 59.436 28.7639 59.436 28.2489C59.436 27.7084 59.9063 27.4127 60.3893 27.3744L62.0669 27.247V27.5555V27.5529ZM69.4212 25.0161V23.4711C69.2552 23.4456 69.0917 23.4328 68.9257 23.4328C68.1511 23.4328 67.3638 23.7541 67.0595 24.5266L66.9186 23.5221H65.573V30.2172H67.1727V26.8441C67.1727 25.7631 67.7562 24.9524 68.8754 24.9524C69.054 24.9524 69.2427 24.9779 69.4212 25.0161ZM75.6941 27.8486H74.1321C74.1196 28.0934 74.0441 28.2999 73.941 28.4656C73.7498 28.7614 73.4078 28.9679 72.9249 28.9679C72.4923 28.9679 72.1753 28.7741 71.959 28.5421C71.5767 28.1164 71.5138 27.4866 71.5138 26.8543C71.5138 26.222 71.5767 25.5796 71.959 25.1538C72.1753 24.9218 72.4923 24.7408 72.9249 24.7408C73.4078 24.7408 73.7498 24.9473 73.941 25.243C74.0416 25.4113 74.1196 25.6152 74.1321 25.86H75.6941C75.6689 25.3323 75.4903 24.8045 75.186 24.4042C74.7282 23.8255 73.9284 23.3487 72.9249 23.3487C71.9213 23.3487 71.0838 23.8382 70.626 24.4042C70.1305 25.034 69.9016 25.8728 69.9016 26.8518C69.9016 27.8308 70.1305 28.6671 70.626 29.2993C71.0838 29.8653 71.9213 30.3548 72.9249 30.3548C73.9284 30.3548 74.7282 29.8781 75.186 29.2993C75.4903 28.8991 75.6689 28.3713 75.6941 27.8435V27.8486ZM82.6938 26.9206C82.7189 26.0844 82.6058 25.3246 82.1228 24.5903C81.5771 23.7541 80.6867 23.3538 79.7083 23.3538C78.8053 23.3538 78.0961 23.6878 77.6006 24.2028C76.9642 24.8606 76.6473 25.8116 76.6473 26.8824C76.6473 27.9532 77.002 28.9169 77.6634 29.5594C78.1841 30.0617 78.8456 30.3829 79.746 30.3829C80.5836 30.3829 81.411 30.1126 81.9694 29.4421C82.2234 29.1336 82.4901 28.6059 82.5278 28.2056H81.0036C80.9407 28.4503 80.825 28.6314 80.6867 28.7716C80.4578 29.0036 80.1786 29.0928 79.7209 29.0928C79.2882 29.0928 78.9713 28.8991 78.7425 28.6798C78.4255 28.3713 78.247 27.8818 78.2595 27.3668H82.6812C82.6812 27.224 82.6938 26.9155 82.6938 26.9155V26.9206ZM81.1067 26.1991H78.2495C78.2621 25.7606 78.3627 25.4521 78.5915 25.1563C78.8204 24.8478 79.2128 24.6413 79.6957 24.6413C80.1535 24.6413 80.483 24.7968 80.6993 25.0263C80.9533 25.3093 81.0941 25.6968 81.1067 26.1991ZM86.6451 30.2044V28.8532C86.5571 28.8532 86.5168 28.8659 86.3785 28.8659C85.8327 28.8659 85.7422 28.6084 85.7422 28.2209V20.9062H84.1425V28.4911C84.1425 29.7659 84.8669 30.2937 85.9459 30.2937C86.2628 30.2937 86.3282 30.2682 86.6451 30.2044ZM93.6675 26.8696C93.6675 25.7376 93.3883 25.0289 92.8928 24.3966C92.435 23.8306 91.5849 23.3538 90.5814 23.3538C89.5778 23.3538 88.7277 23.8306 88.2699 24.3966C87.7744 25.0263 87.4952 25.7351 87.4952 26.8696C87.4952 28.0042 87.7744 28.7104 88.2699 29.3427C88.7277 29.9087 89.5778 30.3854 90.5814 30.3854C91.5849 30.3854 92.435 29.9087 92.8928 29.3427C93.3883 28.7129 93.6675 28.0042 93.6675 26.8696ZM92.0553 26.8696C92.0553 27.4994 91.9672 28.1316 91.5849 28.5574C91.3686 28.7894 91.014 28.9832 90.5814 28.9832C90.1488 28.9832 89.7941 28.7894 89.5778 28.5574C89.198 28.1316 89.1075 27.5019 89.1075 26.8696C89.1075 26.2373 89.1955 25.6076 89.5778 25.1818C89.7941 24.9498 90.1488 24.7561 90.5814 24.7561C91.014 24.7561 91.3686 24.9498 91.5849 25.1818C91.9647 25.6076 92.0553 26.2373 92.0553 26.8696ZM100.818 30.2172V25.7478C100.818 24.3558 99.9931 23.3538 98.5821 23.3538C97.82 23.3538 97.0328 23.675 96.6379 24.3838L96.5247 23.5221H95.1917V30.2172H96.7787V27.4866C96.7787 26.9206 96.7662 26.2246 96.9951 25.6968C97.2114 25.2073 97.5786 24.8478 98.1395 24.8478C98.977 24.8478 99.231 25.3246 99.231 26.1099V30.2172H100.818ZM108.452 30.1407V28.9552C108.452 28.9552 108.351 28.9806 108.248 28.9806C107.981 28.9806 107.881 28.8659 107.881 28.5549V26.0691C107.881 25.6178 107.856 25.141 107.69 24.7178C107.307 23.7133 106.344 23.3538 105.212 23.3538C103.738 23.3538 102.556 24.0243 102.468 25.5311H104.005C104.043 24.9141 104.475 24.5776 105.212 24.5776C106.115 24.5776 106.331 25.0034 106.331 25.6331V26.0461L104.387 26.1889C103.13 26.2781 102.151 27.0124 102.151 28.2872C102.151 29.3809 102.964 30.3854 104.541 30.3854C105.481 30.3854 106.243 29.9214 106.548 29.3809C106.598 29.8832 106.98 30.3217 107.664 30.3217C108.047 30.3217 108.185 30.258 108.452 30.1407ZM106.331 27.5529C106.331 28.5447 105.632 29.0852 104.641 29.0852C104.146 29.0852 103.7 28.7639 103.7 28.2489C103.7 27.7084 104.171 27.4127 104.654 27.3744L106.331 27.247V27.5555V27.5529Z" fill="#FFC354"/>
</svg>
