<svg width="40" height="41" viewBox="0 0 40 41" fill="none" xmlns="http://www.w3.org/2000/svg">
<path d="M18.65 30.4375H21.65V22.1894H30V19.2081H21.65V10.5625H18.65V19.2081H10V22.1894H18.65V30.4375ZM20 40.375C17.2667 40.375 14.6833 39.8533 12.25 38.8098C9.81667 37.7664 7.69167 36.342 5.875 34.5367C4.05833 32.7314 2.625 30.6197 1.575 28.2016C0.525 25.7834 0 23.1997 0 20.4503C0 17.7341 0.525 15.1669 1.575 12.7488C2.625 10.3306 4.05833 8.22719 5.875 6.43844C7.69167 4.64969 9.81667 3.23359 12.25 2.19016C14.6833 1.14672 17.2833 0.625 20.05 0.625C22.7833 0.625 25.3667 1.14672 27.8 2.19016C30.2333 3.23359 32.35 4.64969 34.15 6.43844C35.95 8.22719 37.375 10.3306 38.425 12.7488C39.475 15.1669 40 17.7506 40 20.5C40 23.2162 39.475 25.7834 38.425 28.2016C37.375 30.6197 35.95 32.7314 34.15 34.5367C32.35 36.342 30.2333 37.7664 27.8 38.8098C25.3667 39.8533 22.7667 40.375 20 40.375ZM20.05 37.3937C24.75 37.3937 28.75 35.7458 32.05 32.4498C35.35 29.1539 37 25.1541 37 20.4503C37 15.7797 35.35 11.8047 32.05 8.52531C28.75 5.24594 24.7333 3.60625 20 3.60625C15.3 3.60625 11.2917 5.24594 7.975 8.52531C4.65833 11.8047 3 15.7962 3 20.5C3 25.1706 4.65833 29.1539 7.975 32.4498C11.2917 35.7458 15.3167 37.3937 20.05 37.3937Z" fill="#000824"/>
</svg>
