<svg width="84" height="84" viewBox="0 0 84 84" fill="none" xmlns="http://www.w3.org/2000/svg">
<path d="M75.1406 16.308C74.831 16.0609 74.469 15.8881 74.0822 15.8028C73.6954 15.7174 73.2942 15.7219 72.9094 15.8158L52.8281 20.8361L32.7141 10.7626H32.6813L32.4188 10.6642H32.3531L32.1234 10.5986H32.025L31.7953 10.533H30.9094L9.90938 15.783C9.33134 15.9242 8.81844 16.2577 8.45477 16.7286C8.0911 17.1996 7.89825 17.7802 7.90781 18.3751V65.6251C7.90398 66.0252 7.994 66.4207 8.17065 66.7797C8.34731 67.1387 8.60567 67.4513 8.925 67.6923C9.38289 68.0539 9.94937 68.2505 10.5328 68.2501L11.1891 68.1845L31.2375 63.1642L51.3516 73.2377H51.3844L51.6141 73.3361H51.6469L51.9094 73.4345H53.1891L74.1891 68.1845C74.7555 68.0383 75.2568 67.707 75.6135 67.2434C75.9702 66.7797 76.1618 66.2101 76.1578 65.6251V18.3751C76.1617 17.9751 76.0716 17.5796 75.895 17.2206C75.7183 16.8616 75.46 16.549 75.1406 16.308ZM13.1578 20.4095L28.9078 16.472V58.3408L13.1578 62.2783V20.4095ZM49.9078 66.6423L34.1578 58.7673V17.358L49.9078 25.233V66.6423ZM70.9078 63.5908L55.1578 67.5283V25.6595L70.9078 21.722V63.5908Z" fill="#2846F5"/>
</svg>
