<svg width="102" height="103" viewBox="0 0 102 103" fill="none" xmlns="http://www.w3.org/2000/svg">
<path d="M1.45117 102V102.5H1.95117H100.231H100.731V102V82.5398V82.0398H100.231H37.4244C38.7093 76.3651 43.0104 72.5644 48.9392 69.5634C53.8527 67.0762 59.799 65.1791 65.9262 63.2243C67.4605 62.7348 69.0061 62.2417 70.5497 61.7348C78.2219 59.2153 85.8286 56.3583 91.516 51.906C97.2327 47.4306 101.011 41.3419 101.011 32.4198C101.011 23.1408 96.6477 15.3262 88.559 9.85071C80.4871 4.38665 68.7231 1.25977 53.8912 1.25977C37.6029 1.25977 24.8885 4.24143 16.2317 10.0777C7.54573 15.9336 2.99117 24.6335 2.99117 35.9198V36.4198H3.49117H27.1512H27.6512V35.9198C27.6512 33.3836 28.2922 31.2421 29.4878 29.4487C30.6856 27.652 32.4586 26.1771 34.7624 25.0082C39.3832 22.6635 46.0796 21.5798 54.3112 21.5798C61.916 21.5798 67.4855 22.5596 71.1378 24.5132C72.9557 25.4855 74.2872 26.6929 75.1667 28.1326C76.0456 29.5715 76.4912 31.272 76.4912 33.2598L76.4912 33.2626C76.5243 39.0912 72.1321 42.7857 65.1292 45.7695C60.3879 47.7897 54.5837 49.4296 48.3963 51.1777C45.4522 52.0095 42.4214 52.8658 39.3771 53.7992C29.9796 56.6807 20.5046 60.2866 13.3777 66.1656C6.22442 72.0664 1.45117 80.2457 1.45117 92.1998V102Z" stroke="white"/>
</svg>
