<svg width="100" height="99" viewBox="0 0 100 99" fill="none" xmlns="http://www.w3.org/2000/svg">
<path d="M57.0586 33.0405C47.1332 33.0405 35.3072 34.6167 26.2052 39.6002L28.9292 21.4405H90.9386H91.4386V20.9405V1.48047V0.980469H90.9386H10.1586H9.72749L9.66404 1.40687L2.66404 48.4469L2.59618 48.9029L3.04519 49.0074L23.4852 53.7674L23.769 53.8335L23.9664 53.6192C25.1226 52.3638 26.8514 51.3133 28.9374 50.4479C31.0181 49.5847 33.4218 48.9189 35.8958 48.4154C40.8447 47.4083 46.0256 47.0605 49.3586 47.0605C54.243 47.0605 60.4622 47.5164 65.4438 49.5605C67.9291 50.5804 70.08 51.9851 71.6084 53.9007C73.1306 55.8087 74.0586 58.2522 74.0586 61.4005C74.0586 64.7247 73.3651 67.3571 72.1733 69.4407C70.9821 71.5232 69.2768 73.0859 67.2088 74.247C63.0544 76.5796 57.4567 77.2805 51.7386 77.2805C46.2947 77.2805 39.588 76.7545 34.2763 74.5026C31.6263 73.3792 29.3488 71.8366 27.7428 69.7393C26.1421 67.649 25.1846 64.9772 25.2186 61.5454L25.2236 61.0405H24.7186H1.05859H0.558594V61.5405C0.558594 68.8973 2.20408 74.86 5.07674 79.6603C7.94904 84.4602 12.0316 88.0702 16.8637 90.7478C26.5126 96.0945 39.18 97.7405 51.3186 97.7405C61.7245 97.7405 73.5082 95.8793 82.7096 90.8186C91.9384 85.7427 98.5786 77.4356 98.5786 64.6205C98.5786 53.1593 93.0833 45.2386 85.1336 40.2055C77.207 35.1871 66.8501 33.0405 57.0586 33.0405Z" stroke="white"/>
</svg>
