<svg width="100" height="104" viewBox="0 0 100 104" fill="none" xmlns="http://www.w3.org/2000/svg">
<path d="M95.098 58.7523C92.6079 55.6889 89.176 53.3743 85.1496 51.6998C89.178 50.0192 92.6096 47.6733 95.0988 44.5945C97.8338 41.2118 99.41 36.9697 99.41 31.8202C99.41 19.4021 92.4296 11.5883 83.0508 6.90777C73.6965 2.23949 61.9196 0.660156 52.15 0.660156C40.5031 0.660156 27.8064 2.1659 18.0044 7.26152C13.096 9.81316 8.90162 13.2712 5.93586 17.9004C2.96872 22.5318 1.25 28.3067 1.25 35.4602V35.9602H1.75H25.41H25.9152L25.91 35.4549C25.8762 32.2138 26.8936 29.7261 28.5737 27.8001C30.2629 25.8635 32.6469 24.4674 35.3813 23.4699C40.8588 21.4718 47.6087 21.1202 52.57 21.1202C56.6979 21.1202 62.2928 21.3326 66.8435 22.9125C69.1142 23.7008 71.09 24.8181 72.4953 26.3875C73.8911 27.9461 74.75 29.9786 74.75 32.6602C74.75 37.3291 72.869 40.3168 70.0089 42.1625C67.1146 44.0304 63.1661 44.7602 59.01 44.7602H35.91H35.41V45.2602V58.1402V58.6402H35.91H59.01C63.166 58.6402 67.1155 59.3699 70.0106 61.2214C72.8716 63.0511 74.75 66.0043 74.75 70.6002C74.75 73.3185 73.8899 75.378 72.4934 76.956C71.0877 78.5444 69.112 79.6742 66.8419 80.4709C62.2921 82.0676 56.6981 82.2802 52.57 82.2802C46.707 82.2802 39.9706 81.6841 34.7336 79.3146C32.1222 78.1331 29.9047 76.5199 28.3479 74.339C26.7946 72.1632 25.8759 69.3904 25.91 65.845L25.9148 65.3402H25.41H1.75H1.25V65.8402C1.25 80.7183 7.67997 89.9843 17.3039 95.499C26.8849 100.989 39.5902 102.74 52.15 102.74C61.9183 102.74 73.6954 101.196 83.0501 96.5454C92.4304 91.8818 99.41 84.0675 99.41 71.5802C99.41 66.3618 97.8345 62.1189 95.098 58.7523Z" stroke="white"/>
</svg>
