<svg width="26" height="25" viewBox="0 0 26 25" fill="none" xmlns="http://www.w3.org/2000/svg">
<rect x="0.5" width="25" height="25" rx="12.5" fill="#FFC354"/>
<path d="M18.6422 8.76667C17.6101 7.96666 16.3716 7.56667 15.0642 7.5L14.8578 7.70001C16.0275 7.96666 17.0597 8.49998 18.0229 9.23332C16.8532 8.63333 15.5459 8.23334 14.1697 8.1C13.7569 8.03333 13.4128 8.03333 13 8.03333C12.5872 8.03333 12.2431 8.03333 11.8303 8.1C10.4541 8.23334 9.14678 8.63333 7.97706 9.23332C8.94035 8.49998 9.97249 7.96666 11.1422 7.70001L10.9358 7.5C9.62843 7.56667 8.38989 7.96666 7.3578 8.76667C6.18807 10.9 5.56881 13.3 5.5 15.7666C6.53209 16.8333 7.97706 17.5 9.49085 17.5C9.49085 17.5 9.97249 16.9667 10.3165 16.5C9.42203 16.3 8.59633 15.8333 8.04588 15.1C8.52752 15.3667 9.00916 15.6333 9.49085 15.8333C10.1101 16.1 10.7294 16.2333 11.3486 16.3667C11.8991 16.4333 12.4496 16.5 13 16.5C13.5505 16.5 14.1009 16.4333 14.6514 16.3667C15.2706 16.2333 15.8899 16.1 16.5092 15.8333C16.9909 15.6333 17.4725 15.3667 17.9541 15.1C17.4037 15.8333 16.578 16.3 15.6835 16.5C16.0275 16.9667 16.5092 17.5 16.5092 17.5C18.0229 17.5 19.4679 16.8333 20.5 15.7666C20.4312 13.3 19.8119 10.9 18.6422 8.76667ZM10.7294 14.5666C10.0413 14.5666 9.42204 13.9666 9.42204 13.2333C9.42204 12.5 10.0413 11.9 10.7294 11.9C11.4175 11.9 12.0367 12.5 12.0367 13.2333C12.0367 13.9666 11.4175 14.5666 10.7294 14.5666ZM15.2706 14.5666C14.5826 14.5666 13.9633 13.9666 13.9633 13.2333C13.9633 12.5 14.5826 11.9 15.2706 11.9C15.9587 11.9 16.578 12.5 16.578 13.2333C16.578 13.9666 15.9587 14.5666 15.2706 14.5666Z" fill="#1737B6"/>
</svg>
