<svg width="26" height="25" viewBox="0 0 26 25" fill="none" xmlns="http://www.w3.org/2000/svg">
<rect x="0.375" width="25" height="25" rx="12.5" fill="#FFC354"/>
<path d="M12.875 7.37952C14.5316 7.37952 14.7575 7.37952 15.4353 7.37952C16.0377 7.37952 16.3389 7.53012 16.5648 7.60542C16.866 7.75603 17.0919 7.83133 17.3178 8.05723C17.5437 8.28313 17.6943 8.50904 17.7696 8.81024C17.8449 9.03615 17.9202 9.33735 17.9955 9.93976C17.9955 10.6175 17.9955 10.7681 17.9955 12.5C17.9955 14.2319 17.9955 14.3825 17.9955 15.0603C17.9955 15.6627 17.8449 15.9639 17.7696 16.1898C17.619 16.491 17.5437 16.7169 17.3178 16.9428C17.0919 17.1687 16.866 17.3193 16.5648 17.3946C16.3389 17.4699 16.0377 17.5452 15.4353 17.6205C14.7575 17.6205 14.6069 17.6205 12.875 17.6205C11.1431 17.6205 10.9925 17.6205 10.3148 17.6205C9.71235 17.6205 9.41115 17.4699 9.18524 17.3946C8.88404 17.244 8.65813 17.1687 8.43223 16.9428C8.20633 16.7169 8.05572 16.491 7.98042 16.1898C7.90512 15.9639 7.82982 15.6627 7.75452 15.0603C7.75452 14.3825 7.75452 14.2319 7.75452 12.5C7.75452 10.7681 7.75452 10.6175 7.75452 9.93976C7.75452 9.33735 7.90512 9.03615 7.98042 8.81024C8.13103 8.50904 8.20633 8.28313 8.43223 8.05723C8.65813 7.83133 8.88404 7.68072 9.18524 7.60542C9.41115 7.53012 9.71235 7.45482 10.3148 7.37952C10.9925 7.37952 11.2184 7.37952 12.875 7.37952ZM12.875 6.25C11.1431 6.25 10.9925 6.25 10.3148 6.25C9.63705 6.25 9.18524 6.4006 8.80874 6.55121C8.43223 6.70181 8.05572 6.92771 7.67922 7.30422C7.30271 7.68072 7.15211 7.98193 6.92621 8.43374C6.7756 8.81024 6.7003 9.26205 6.625 9.93976C6.625 10.6175 6.625 10.8434 6.625 12.5C6.625 14.2319 6.625 14.3825 6.625 15.0603C6.625 15.738 6.7756 16.1898 6.92621 16.5663C7.07681 16.9428 7.30271 17.3193 7.67922 17.6958C8.05572 18.0723 8.35693 18.2229 8.80874 18.4488C9.18524 18.5994 9.63705 18.6747 10.3148 18.75C10.9925 18.75 11.2184 18.75 12.875 18.75C14.5316 18.75 14.7575 18.75 15.4353 18.75C16.113 18.75 16.5648 18.5994 16.9413 18.4488C17.3178 18.2982 17.6943 18.0723 18.0708 17.6958C18.4473 17.3193 18.5979 17.0181 18.8238 16.5663C18.9744 16.1898 19.0497 15.738 19.125 15.0603C19.125 14.3825 19.125 14.1566 19.125 12.5C19.125 10.8434 19.125 10.6175 19.125 9.93976C19.125 9.26205 18.9744 8.81024 18.8238 8.43374C18.6732 8.05723 18.4473 7.68072 18.0708 7.30422C17.6943 6.92771 17.3931 6.77711 16.9413 6.55121C16.5648 6.4006 16.113 6.3253 15.4353 6.25C14.7575 6.25 14.6069 6.25 12.875 6.25Z" fill="#1737B6"/>
<path d="M12.875 9.26205C11.0678 9.26205 9.63705 10.6928 9.63705 12.5C9.63705 14.3072 11.0678 15.738 12.875 15.738C14.6822 15.738 16.113 14.3072 16.113 12.5C16.113 10.6928 14.6822 9.26205 12.875 9.26205ZM12.875 14.6084C11.7455 14.6084 10.7666 13.7048 10.7666 12.5C10.7666 11.3705 11.6702 10.3916 12.875 10.3916C14.0045 10.3916 14.9834 11.2952 14.9834 12.5C14.9834 13.6295 14.0045 14.6084 12.875 14.6084Z" fill="#1737B6"/>
<path d="M16.1883 9.93976C16.6041 9.93976 16.9413 9.60263 16.9413 9.18675C16.9413 8.77087 16.6041 8.43374 16.1883 8.43374C15.7724 8.43374 15.4353 8.77087 15.4353 9.18675C15.4353 9.60263 15.7724 9.93976 16.1883 9.93976Z" fill="#1737B6"/>
</svg>
