<svg width="26" height="25" viewBox="0 0 26 25" fill="none" xmlns="http://www.w3.org/2000/svg">
<g clip-path="url(#clip0_395_1408)">
<rect x="0.75" width="25" height="25" rx="12.5" fill="#FFC354"/>
<path d="M19.4851 8.90849C18.6143 8.90847 17.7792 8.56252 17.1634 7.94674C16.5477 7.33097 16.2018 6.49582 16.2018 5.625H13.856V14.8109C13.8555 15.2297 13.7233 15.6377 13.478 15.9772C13.2327 16.3166 12.8868 16.5703 12.4893 16.7021C12.0918 16.834 11.6628 16.8374 11.2633 16.7119C10.8637 16.5864 10.5138 16.3383 10.2631 16.0028C10.0124 15.6673 9.87371 15.2614 9.86659 14.8427C9.85947 14.424 9.98432 14.0136 10.2235 13.6698C10.4626 13.326 10.8039 13.0661 11.1989 12.9271C11.594 12.7881 12.0228 12.7769 12.4245 12.8952V10.6148C11.5707 10.4997 10.7021 10.6478 9.93471 11.0393C9.16729 11.4308 8.53757 12.0472 8.12965 12.806C7.72174 13.5648 7.55503 14.4301 7.65179 15.2861C7.74856 16.1422 8.10419 16.9484 8.6712 17.597C9.23821 18.2457 9.9896 18.7059 10.8251 18.9162C11.6605 19.1266 12.5403 19.0771 13.3468 18.7742C14.1534 18.4714 14.8484 17.9298 15.339 17.2216C15.8296 16.5134 16.0925 15.6724 16.0925 14.8109L16.161 10.1677C17.1248 10.8753 18.2897 11.256 19.4854 11.2542L19.4851 8.90849Z" fill="#1737B6"/>
</g>
<defs>
<clipPath id="clip0_395_1408">
<rect width="25" height="25" fill="white" transform="translate(0.75)"/>
</clipPath>
</defs>
</svg>
