<svg width="26" height="25" viewBox="0 0 26 25" fill="none" xmlns="http://www.w3.org/2000/svg">
<path d="M25.125 12.5C25.125 5.59645 19.5286 0 12.625 0C5.72145 0 0.125 5.59645 0.125 12.5C0.125 19.4036 5.72145 25 12.625 25C19.5286 25 25.125 19.4036 25.125 12.5Z" fill="#FFC354"/>
<path d="M9.50168 7.36621L7.26953 9.59836V17.6341H9.94811V19.8662L12.1802 17.6341H13.966L17.9838 13.6162V7.36621H9.50168ZM17.091 13.1698L15.3053 14.9555H13.5195L11.957 16.518V14.9555H9.94811V8.25907H17.091V13.1698Z" fill="#1737B6"/>
<path d="M15.7517 9.82157H14.8588V12.5001H15.7517V9.82157Z" fill="#1737B6"/>
<path d="M13.2963 9.82157H12.4035V12.5001H13.2963V9.82157Z" fill="#1737B6"/>
</svg>
